# xmcd CD database file
#
# Track frame offsets:
#	150
#	6595
#	26342
#	46347
#	64757
#	82710
#	87610
#	109592
#	132352
#	149807
#	155127
#	176290
#	201352
#	223135
#	245595
#
# Disc length: 4306 seconds
#
# Revision: 3
# Processed by: cddbd v1.5.2PL0 Copyright (c) Steve Scherf et al.
# Submitted via: CDex 1.51
#
DISCID=da10d00f
DTITLE=Courtney Pine - Back In The Day
DYEAR=2000
DGENRE=Jazz
TTITLE0=Intro - Search
TTITLE1=The Jazzstep
TTITLE2=Hardtimes (Curtis Mayfield)
TTITLE3=Brotherman
TTITLE4=Keep It Real
TTITLE5=Interlude - Straight Ahead Hip Hop
TTITLE6=Lady Day and (John Coltrane) (Gil Scott-Heron)
TTITLE7=My Father's Place
TTITLE8=Yeah! Yeah!
TTITLE9=Interlude - Quartet No. 1
TTITLE10=Inner State (Of Mind)
TTITLE11=Power To The People
TTITLE12=Love And Affection
TTITLE13=Third Man
TTITLE14=Meditate - (Outro)
EXTD=YEAR: 2000
EXTT0=
EXTT1=
EXTT2=
EXTT3=
EXTT4=
EXTT5=
EXTT6=
EXTT7=
EXTT8=
EXTT9=
EXTT10=
EXTT11=
EXTT12=
EXTT13=
EXTT14=
PLAYORDER=
